<svg width="382" height="88" viewBox="0 0 382 88" fill="none" xmlns="http://www.w3.org/2000/svg">
<g id="logo">
<path id="TRAVERSE" d="M19.86 69C18.98 69 18.24 68.7 17.64 68.1C17.04 67.5 16.74 66.76 16.74 65.88V22.14H22.98V65.88C22.98 66.76 22.68 67.5 22.08 68.1C21.48 68.7 20.74 69 19.86 69ZM3.78 27.9C2.94 27.9 2.24 27.64 1.68 27.12C1.16 26.56 0.9 25.86 0.9 25.02C0.9 24.18 1.16 23.5 1.68 22.98C2.24 22.42 2.94 22.14 3.78 22.14H35.88C36.72 22.14 37.4 22.42 37.92 22.98C38.48 23.5 38.76 24.18 38.76 25.02C38.76 25.86 38.48 26.56 37.92 27.12C37.4 27.64 36.72 27.9 35.88 27.9H3.78ZM48.788 69C47.908 69 47.168 68.7 46.568 68.1C45.968 67.5 45.668 66.76 45.668 65.88V25.26C45.668 24.34 45.968 23.6 46.568 23.04C47.168 22.44 47.908 22.14 48.788 22.14H59.588C62.588 22.14 65.248 22.78 67.568 24.06C69.888 25.3 71.688 27.02 72.968 29.22C74.288 31.42 74.948 33.98 74.948 36.9C74.948 39.62 74.288 42.04 72.968 44.16C71.688 46.28 69.888 47.94 67.568 49.14C65.248 50.34 62.588 50.94 59.588 50.94H51.908V65.88C51.908 66.76 51.608 67.5 51.008 68.1C50.448 68.7 49.708 69 48.788 69ZM73.688 69C73.128 69 72.608 68.88 72.128 68.64C71.688 68.4 71.308 68.02 70.988 67.5L60.188 50.1L66.248 48.36L76.088 64.2C76.808 65.36 76.908 66.46 76.388 67.5C75.868 68.5 74.968 69 73.688 69ZM51.908 45.18H59.588C61.428 45.18 63.048 44.84 64.448 44.16C65.848 43.44 66.948 42.46 67.748 41.22C68.548 39.94 68.948 38.5 68.948 36.9C68.948 35.14 68.548 33.58 67.748 32.22C66.948 30.86 65.848 29.8 64.448 29.04C63.048 28.28 61.428 27.9 59.588 27.9H51.908V45.18ZM81.7181 69C80.5981 69 79.7381 68.52 79.1381 67.56C78.5381 66.6 78.4781 65.58 78.9581 64.5L95.8181 24.24C96.4181 22.84 97.3981 22.14 98.7581 22.14C100.198 22.14 101.178 22.84 101.698 24.24L118.618 64.62C119.058 65.74 118.978 66.76 118.378 67.68C117.818 68.56 116.958 69 115.798 69C115.198 69 114.618 68.84 114.058 68.52C113.538 68.16 113.158 67.68 112.918 67.08L98.0381 30.12H99.7181L84.5981 67.08C84.3181 67.72 83.8981 68.2 83.3381 68.52C82.8181 68.84 82.2781 69 81.7181 69ZM84.8981 58.68L87.2981 53.52H110.818L113.218 58.68H84.8981ZM137.041 69C135.761 69 134.821 68.34 134.221 67.02L116.641 26.82C116.081 25.46 116.021 24.34 116.461 23.46C116.901 22.58 117.741 22.14 118.981 22.14C120.381 22.14 121.341 22.76 121.861 24L137.281 61.02H136.621L152.341 24C152.661 23.28 153.021 22.8 153.421 22.56C153.861 22.28 154.441 22.14 155.161 22.14C156.361 22.14 157.181 22.58 157.621 23.46C158.101 24.3 158.101 25.24 157.621 26.28L139.861 67.02C139.581 67.66 139.201 68.16 138.721 68.52C138.281 68.84 137.721 69 137.041 69ZM168.319 69C167.439 69 166.699 68.7 166.099 68.1C165.499 67.5 165.199 66.76 165.199 65.88V25.26C165.199 24.34 165.499 23.6 166.099 23.04C166.699 22.44 167.439 22.14 168.319 22.14H195.439C196.359 22.14 197.099 22.42 197.659 22.98C198.219 23.5 198.499 24.2 198.499 25.08C198.499 25.92 198.219 26.6 197.659 27.12C197.099 27.64 196.359 27.9 195.439 27.9H171.439V42.48H188.659C189.579 42.48 190.319 42.76 190.879 43.32C191.439 43.84 191.719 44.52 191.719 45.36C191.719 46.2 191.439 46.9 190.879 47.46C190.319 47.98 189.579 48.24 188.659 48.24H171.439V63.24H195.439C196.359 63.24 197.099 63.5 197.659 64.02C198.219 64.54 198.499 65.22 198.499 66.06C198.499 66.94 198.219 67.66 197.659 68.22C197.099 68.74 196.359 69 195.439 69H168.319ZM210.331 69C209.451 69 208.711 68.7 208.111 68.1C207.511 67.5 207.211 66.76 207.211 65.88V25.26C207.211 24.34 207.511 23.6 208.111 23.04C208.711 22.44 209.451 22.14 210.331 22.14H221.131C224.131 22.14 226.791 22.78 229.111 24.06C231.431 25.3 233.231 27.02 234.511 29.22C235.831 31.42 236.491 33.98 236.491 36.9C236.491 39.62 235.831 42.04 234.511 44.16C233.231 46.28 231.431 47.94 229.111 49.14C226.791 50.34 224.131 50.94 221.131 50.94H213.451V65.88C213.451 66.76 213.151 67.5 212.551 68.1C211.991 68.7 211.251 69 210.331 69ZM235.231 69C234.671 69 234.151 68.88 233.671 68.64C233.231 68.4 232.851 68.02 232.531 67.5L221.731 50.1L227.791 48.36L237.631 64.2C238.351 65.36 238.451 66.46 237.931 67.5C237.411 68.5 236.511 69 235.231 69ZM213.451 45.18H221.131C222.971 45.18 224.591 44.84 225.991 44.16C227.391 43.44 228.491 42.46 229.291 41.22C230.091 39.94 230.491 38.5 230.491 36.9C230.491 35.14 230.091 33.58 229.291 32.22C228.491 30.86 227.391 29.8 225.991 29.04C224.591 28.28 222.971 27.9 221.131 27.9H213.451V45.18ZM260.001 69.6C257.441 69.6 255.001 69.2 252.681 68.4C250.361 67.6 248.341 66.48 246.621 65.04C244.901 63.6 243.641 61.94 242.841 60.06C242.441 59.22 242.441 58.44 242.841 57.72C243.281 57 244.001 56.54 245.001 56.34C245.721 56.18 246.421 56.3 247.101 56.7C247.821 57.06 248.361 57.62 248.721 58.38C249.201 59.38 249.981 60.3 251.061 61.14C252.181 61.98 253.521 62.66 255.081 63.18C256.641 63.7 258.281 63.96 260.001 63.96C261.921 63.96 263.681 63.66 265.281 63.06C266.921 62.46 268.241 61.6 269.241 60.48C270.241 59.32 270.741 57.9 270.741 56.22C270.741 54.1 269.901 52.2 268.221 50.52C266.581 48.84 263.861 47.8 260.061 47.4C255.101 46.92 251.201 45.46 248.361 43.02C245.521 40.58 244.101 37.56 244.101 33.96C244.101 31.32 244.841 29.08 246.321 27.24C247.801 25.4 249.801 24 252.321 23.04C254.881 22.08 257.721 21.6 260.841 21.6C263.281 21.6 265.401 21.94 267.201 22.62C269.041 23.3 270.641 24.24 272.001 25.44C273.361 26.64 274.541 28.06 275.541 29.7C276.101 30.58 276.321 31.42 276.201 32.22C276.121 32.98 275.741 33.58 275.061 34.02C274.301 34.5 273.481 34.6 272.601 34.32C271.721 34.04 271.061 33.52 270.621 32.76C269.981 31.6 269.201 30.62 268.281 29.82C267.361 29.02 266.281 28.4 265.041 27.96C263.801 27.48 262.341 27.24 260.661 27.24C257.701 27.2 255.221 27.76 253.221 28.92C251.221 30.04 250.221 31.78 250.221 34.14C250.221 35.34 250.521 36.5 251.121 37.62C251.761 38.7 252.901 39.64 254.541 40.44C256.221 41.24 258.621 41.8 261.741 42.12C266.501 42.6 270.201 44.06 272.841 46.5C275.521 48.9 276.861 52.08 276.861 56.04C276.861 58.32 276.381 60.3 275.421 61.98C274.501 63.66 273.241 65.08 271.641 66.24C270.081 67.36 268.281 68.2 266.241 68.76C264.241 69.32 262.161 69.6 260.001 69.6ZM289.55 69C288.67 69 287.93 68.7 287.33 68.1C286.73 67.5 286.43 66.76 286.43 65.88V25.26C286.43 24.34 286.73 23.6 287.33 23.04C287.93 22.44 288.67 22.14 289.55 22.14H316.67C317.59 22.14 318.33 22.42 318.89 22.98C319.45 23.5 319.73 24.2 319.73 25.08C319.73 25.92 319.45 26.6 318.89 27.12C318.33 27.64 317.59 27.9 316.67 27.9H292.67V42.48H309.89C310.81 42.48 311.55 42.76 312.11 43.32C312.67 43.84 312.95 44.52 312.95 45.36C312.95 46.2 312.67 46.9 312.11 47.46C311.55 47.98 310.81 48.24 309.89 48.24H292.67V63.24H316.67C317.59 63.24 318.33 63.5 318.89 64.02C319.45 64.54 319.73 65.22 319.73 66.06C319.73 66.94 319.45 67.66 318.89 68.22C318.33 68.74 317.59 69 316.67 69H289.55Z" fill="black"/>
<path id="Vector 1" d="M358.531 84.3814L377.731 27.5317C383.854 -5.77446 332.254 -4.57447 338.531 27.5317L351.731 70.3316L366.131 27.5317C370.4 10.6 339.805 13.8 354 32.2" stroke="#44CC2E" stroke-width="5.6" stroke-linecap="round" stroke-linejoin="round"/>
</g>
</svg>
