<svg width="54" height="27" viewBox="0 0 54 27" fill="none" xmlns="http://www.w3.org/2000/svg">
<path id="arrow_icon_g" d="M40.2001 0.299988L53.4001 13.5L40.2001 26.7L40.2001 16.8L27.0001 16.8L27.0001 10.2L40.2001 10.2V0.299988ZM17.1001 10.2C15.2851 10.2 13.8001 11.685 13.8001 13.5C13.8001 15.315 15.2851 16.8 17.1001 16.8C18.9151 16.8 20.4001 15.315 20.4001 13.5C20.4001 11.685 18.9151 10.2 17.1001 10.2ZM3.9001 10.2C2.0851 10.2 0.600098 11.685 0.600098 13.5C0.600098 15.315 2.0851 16.8 3.9001 16.8C5.7151 16.8 7.2001 15.315 7.2001 13.5C7.2001 11.685 5.7151 10.2 3.9001 10.2Z" fill="#22CC3D"/>
</svg>
