<svg width="24" height="19" viewBox="0 0 24 19" fill="none" xmlns="http://www.w3.org/2000/svg">
<path id="attraction_icon" d="M12.6754 4.482L10.807 4.014C10.573 3.9564 10.4002 3.7584 10.375 3.5172C10.3498 3.276 10.4758 3.0456 10.6882 2.9376L12.157 2.2032L10.6018 1.0368C10.4038 0.889199 10.321 0.629999 10.4002 0.3924C10.4794 0.1548 10.699 0 10.9474 0H14.9794H16.1314H16.7074C17.7946 0 18.8206 0.5112 19.4722 1.3824L21.5458 4.1472C21.769 4.446 21.8914 4.8096 21.8914 5.18399C21.8914 6.13799 21.1174 6.91199 20.1634 6.91199H19.3894C18.7774 6.91199 18.1906 6.67079 17.7586 6.23879L17.2834 5.75999H16.1314V6.53399C16.1314 7.42679 16.5922 8.25839 17.3482 8.73359L21.1858 11.1312C22.3414 11.8548 23.0434 13.1184 23.0434 14.4828C23.0434 16.6644 21.2758 18.432 19.0906 18.432H17.8594H15.5554H1.16631C1.04751 18.432 0.928711 18.4176 0.820712 18.3816C0.489514 18.2808 0.219516 18.036 0.089917 17.7156C0.0395174 17.5932 0.0107176 17.4672 0.00351763 17.3304C-0.00368232 17.1972 0.0143176 17.0676 0.0503173 16.9452C0.151117 16.614 0.395915 16.344 0.719913 16.2108C0.827912 16.1676 0.943111 16.1388 1.06191 16.1316L15.6022 14.832C15.901 14.8068 16.1314 14.5548 16.1314 14.2524C16.1314 14.0976 16.0702 13.95 15.9622 13.842L14.3638 12.2436C13.2838 11.1636 12.6754 9.69839 12.6754 8.17199V6.53399V4.482ZM18.4354 2.6028C18.4354 2.5992 18.4354 2.5956 18.4354 2.592C18.4354 2.5884 18.4354 2.5848 18.4354 2.5812V2.6028ZM18.3886 2.8692L16.7182 2.4516C16.711 2.4984 16.7074 2.5452 16.7074 2.592C16.7074 3.0708 17.0926 3.456 17.5714 3.456C17.953 3.456 18.2734 3.2112 18.3886 2.8692ZM4.71589 4.194C5.30268 3.672 6.17027 3.6108 6.82187 4.0464L11.5234 7.17839V8.17199C11.5234 9.35279 11.8258 10.5048 12.3874 11.52H4.03549C3.79429 11.52 3.57829 11.3688 3.49549 11.1456C3.41269 10.9224 3.47749 10.6668 3.66109 10.5084L6.15948 8.36279L0.665913 9.20879C0.413915 9.24839 0.165517 9.11519 0.0575173 8.88479C-0.050482 8.65439 0.00351764 8.37719 0.194316 8.20799L4.71589 4.194Z" fill="white"/>
</svg>
