<svg width="42" height="60" viewBox="0 0 42 60" fill="none" xmlns="http://www.w3.org/2000/svg">
<g id="attraction_marker">
<g id="Vector">
<mask id="path-1-inside-1_449_19" fill="white">
<path d="M21 0C9.39 0 0 9.39 0 21C0 36.75 21 60 21 60C21 60 42 36.75 42 21C42 9.39 32.61 0 21 0ZM21 28.5C16.86 28.5 13.5 25.14 13.5 21C13.5 16.86 16.86 13.5 21 13.5C25.14 13.5 28.5 16.86 28.5 21C28.5 25.14 25.14 28.5 21 28.5Z"/>
</mask>
<path d="M21 0C9.39 0 0 9.39 0 21C0 36.75 21 60 21 60C21 60 42 36.75 42 21C42 9.39 32.61 0 21 0ZM21 28.5C16.86 28.5 13.5 25.14 13.5 21C13.5 16.86 16.86 13.5 21 13.5C25.14 13.5 28.5 16.86 28.5 21C28.5 25.14 25.14 28.5 21 28.5Z" fill="#DFFFE2" stroke="black" stroke-width="6" mask="url(#path-1-inside-1_449_19)"/>
</g>
<g id="Ellipse 9" filter="url(#filter0_d_449_19)">
<circle cx="20.9375" cy="20.9375" r="15.9375" fill="#22CC3D"/>
<circle cx="20.9375" cy="20.9375" r="15.1875" stroke="#DFFFE2" stroke-width="1.5"/>
</g>
<path id="attraction_icon" d="M22.0271 17.463L20.5488 17.1014C20.3637 17.0569 20.227 16.9039 20.207 16.7175C20.1871 16.5312 20.2868 16.3532 20.4548 16.2697L21.6169 15.7023L20.3865 14.8011C20.2298 14.687 20.1643 14.4868 20.227 14.3032C20.2896 14.1196 20.4634 14 20.6599 14H23.8499H24.7614H25.2171C26.0773 14 26.889 14.395 27.4045 15.0681L29.0451 17.2043C29.2217 17.4352 29.3186 17.7161 29.3186 18.0054C29.3186 18.7425 28.7062 19.3405 27.9514 19.3405H27.339C26.8548 19.3405 26.3906 19.1541 26.0488 18.8204L25.6728 18.4504H24.7614V19.0484C24.7614 19.7382 25.1259 20.3808 25.7241 20.7479L28.7603 22.6004C29.6746 23.1595 30.23 24.1358 30.23 25.19C30.23 26.8756 28.8315 28.2413 27.1026 28.2413H26.1285H24.3057H12.9212C12.8272 28.2413 12.7332 28.2302 12.6478 28.2024C12.3858 28.1245 12.1721 27.9354 12.0696 27.6878C12.0297 27.5932 12.0069 27.4959 12.0012 27.3902C11.9955 27.2873 12.0098 27.1871 12.0383 27.0926C12.118 26.8367 12.3117 26.628 12.568 26.5251C12.6535 26.4917 12.7446 26.4695 12.8386 26.4639L24.3427 25.4598C24.5791 25.4403 24.7614 25.2456 24.7614 25.012C24.7614 24.8924 24.713 24.7783 24.6275 24.6949L23.3629 23.4599C22.5084 22.6255 22.0271 21.4934 22.0271 20.314V19.0484V17.463ZM26.5842 16.011C26.5842 16.0082 26.5842 16.0055 26.5842 16.0027C26.5842 15.9999 26.5842 15.9971 26.5842 15.9943V16.011ZM26.5472 16.2169L25.2256 15.8942C25.2199 15.9304 25.2171 15.9665 25.2171 16.0027C25.2171 16.3726 25.5219 16.6702 25.9007 16.6702C26.2026 16.6702 26.4561 16.4811 26.5472 16.2169ZM15.7296 17.2405C16.1939 16.8371 16.8803 16.7899 17.3958 17.1264L21.1156 19.5463V20.314C21.1156 21.2264 21.3549 22.1164 21.7992 22.9008H15.1913C15.0004 22.9008 14.8295 22.784 14.764 22.6115C14.6985 22.4391 14.7498 22.2416 14.8951 22.1192L16.8717 20.4614L12.5253 21.1151C12.3259 21.1457 12.1294 21.0428 12.044 20.8648C11.9585 20.6867 12.0012 20.4726 12.1522 20.3418L15.7296 17.2405Z" fill="white"/>
</g>
<defs>
<filter id="filter0_d_449_19" x="1" y="5" width="39.875" height="39.875" filterUnits="userSpaceOnUse" color-interpolation-filters="sRGB">
<feFlood flood-opacity="0" result="BackgroundImageFix"/>
<feColorMatrix in="SourceAlpha" type="matrix" values="0 0 0 0 0 0 0 0 0 0 0 0 0 0 0 0 0 0 127 0" result="hardAlpha"/>
<feOffset dy="4"/>
<feGaussianBlur stdDeviation="2"/>
<feComposite in2="hardAlpha" operator="out"/>
<feColorMatrix type="matrix" values="0 0 0 0 0 0 0 0 0 0 0 0 0 0 0 0 0 0 0.25 0"/>
<feBlend mode="normal" in2="BackgroundImageFix" result="effect1_dropShadow_449_19"/>
<feBlend mode="normal" in="SourceGraphic" in2="effect1_dropShadow_449_19" result="shape"/>
</filter>
</defs>
</svg>
