<svg width="141" height="141" viewBox="0 0 141 141" fill="none" xmlns="http://www.w3.org/2000/svg">
<g id="auth_logo_icon">
<path id="Ellipse 5" d="M9.09548e-06 70.5C5.69158e-06 31.5639 31.5639 -5.69158e-06 70.5 -9.09548e-06C109.436 -1.24994e-05 141 31.5639 141 70.5C141 109.436 109.436 141 70.5 141C31.5639 141 1.24994e-05 109.436 9.09548e-06 70.5ZM127.669 70.5C127.669 38.9267 102.073 13.3315 70.5 13.3315C38.9267 13.3315 13.3315 38.9267 13.3315 70.5C13.3315 102.073 38.9267 127.669 70.5 127.669C102.073 127.669 127.669 102.073 127.669 70.5Z" fill="#BEFFC9"/>
<path id="Vector 6" d="M72.5307 111.381L91.7306 54.5317C97.8539 21.2255 46.2539 22.4255 52.5306 54.5317L65.7307 97.3316L80.1306 54.5317C84.4 37.6 53.8052 40.8 68 59.2" stroke="#44CC2E" stroke-width="5.6" stroke-linecap="round" stroke-linejoin="round"/>
</g>
</svg>
