<svg width="54" height="36" viewBox="0 0 54 36" fill="none" xmlns="http://www.w3.org/2000/svg">
<path id="bicycle_icon" d="M40.5525 13.628L40.905 13.566V13.8525H42.75C48.8429 13.8525 53.625 18.6346 53.625 24.7275C53.625 30.8345 48.2928 35.8854 42.2051 35.6029C37.1135 35.3636 33.0497 31.7767 32.0929 26.9274L32.0332 26.625H31.725H22.275H21.966L21.9069 26.9283C20.9286 31.9503 16.6048 35.625 11.25 35.625C5.15711 35.625 0.375 30.8429 0.375 24.75C0.375 18.6647 5.70774 13.5927 11.7938 13.897L11.7949 13.8971C16.8865 14.1364 20.9503 17.7233 21.9071 22.5726L21.9668 22.875H22.275H23.7825H24.3181L24.1349 22.3717L20.0399 11.1217L19.9501 10.875H19.6875H16.125V7.125H26.625V10.875H24.5025H23.9689L24.1497 11.377L24.9597 13.627L25.0489 13.875H25.3125H36.135H36.6711L36.4873 13.3714L33.2023 4.37142L33.1123 4.125H32.85H27.375V0.375H32.85C34.5805 0.375 36.1287 1.4672 36.7278 3.09891C36.7279 3.09901 36.7279 3.09912 36.728 3.09923L40.5525 13.628ZM17.9498 27.1213L18.1195 26.625H17.595H11.625V22.875H17.595H18.1195L17.9498 22.3787C16.9991 19.5979 14.4064 17.625 11.25 17.625C7.26289 17.625 4.125 20.7629 4.125 24.75C4.125 28.7371 7.26289 31.875 11.25 31.875C14.4064 31.875 16.9991 29.9021 17.9498 27.1213ZM31.725 22.875H32.0365L32.0936 22.5688C32.3968 20.9445 33.0902 19.4901 34.0488 18.2266L34.5052 17.625H33.75H26.9325H26.3964L26.5802 18.1286L28.2227 22.6286L28.3127 22.875H28.575H31.725ZM38.7149 19.4918L38.5295 18.982L38.1181 19.3356C36.6003 20.6399 35.625 22.5416 35.625 24.75C35.625 28.7371 38.7629 31.875 42.75 31.875C46.7355 31.875 49.8975 28.7387 49.8975 24.75C49.8975 20.7629 46.7596 17.625 42.7725 17.625C42.7067 17.625 42.6457 17.6353 42.6151 17.6404L42.6096 17.6414C42.5767 17.6468 42.5693 17.6474 42.5693 17.6475H42.0348L42.2175 18.1505L44.2718 23.8051L40.747 25.08L38.7149 19.4918Z" fill="#22CC3D" stroke="black" stroke-width="0.75"/>
</svg>
