<svg width="41" height="36" viewBox="0 0 41 36" fill="none" xmlns="http://www.w3.org/2000/svg">
<path id="car_icon" d="M35.7893 2.4348L35.7905 2.43832L40.5 15.8353V33.75C40.5 34.7056 39.7047 35.5 38.7222 35.5H36.4444C35.462 35.5 34.6667 34.7056 34.6667 33.75V31.5V31H34.1667H6.83333H6.33333V31.5V33.75C6.33333 34.7056 5.53799 35.5 4.55556 35.5H2.27778C1.29534 35.5 0.5 34.7056 0.5 33.75V15.8353L5.20882 2.44021C5.61884 1.30456 6.68811 0.5 7.97222 0.5H33.0278C34.3179 0.5 35.4032 1.30966 35.7893 2.4348ZM4.0818 13.3401L3.85913 14H4.55556H36.4444H37.1409L36.9182 13.3401L33.5015 3.21513L33.3867 2.875H33.0278H7.97222H7.61325L7.49847 3.21513L4.0818 13.3401ZM4.05556 21.375C4.05556 23.5244 5.81133 25.25 7.97222 25.25C10.1331 25.25 11.8889 23.5244 11.8889 21.375C11.8889 19.2256 10.1331 17.5 7.97222 17.5C5.81133 17.5 4.05556 19.2256 4.05556 21.375ZM29.1111 21.375C29.1111 23.5244 30.8669 25.25 33.0278 25.25C35.1887 25.25 36.9444 23.5244 36.9444 21.375C36.9444 19.2256 35.1887 17.5 33.0278 17.5C30.8669 17.5 29.1111 19.2256 29.1111 21.375Z" fill="#22CC3D" stroke="black"/>
</svg>
