<svg width="26" height="17" viewBox="0 0 26 17" fill="none" xmlns="http://www.w3.org/2000/svg">
<path id="hotel_icon" d="M7.36914 8.4375C9.11373 8.4375 10.5332 7.01802 10.5332 5.27344C10.5332 3.52885 9.11373 2.10938 7.36914 2.10938C5.62456 2.10938 4.20508 3.52885 4.20508 5.27344C4.20508 7.01802 5.62456 8.4375 7.36914 8.4375ZM21.291 3.375H12.4316C12.082 3.375 11.7988 3.65818 11.7988 4.00781V9.70312H2.93945V1.47656C2.93945 1.12693 2.65627 0.84375 2.30664 0.84375H1.04102C0.691387 0.84375 0.408203 1.12693 0.408203 1.47656V15.3984C0.408203 15.7481 0.691387 16.0312 1.04102 16.0312H2.30664C2.65627 16.0312 2.93945 15.7481 2.93945 15.3984V13.5H23.1895V15.3984C23.1895 15.7481 23.4726 16.0312 23.8223 16.0312H25.0879C25.4375 16.0312 25.7207 15.7481 25.7207 15.3984V7.80469C25.7207 5.35808 23.7376 3.375 21.291 3.375Z" fill="white"/>
</svg>
