<svg width="42" height="60" viewBox="0 0 42 60" fill="none" xmlns="http://www.w3.org/2000/svg">
<g id="hotel_marker">
<g id="Vector">
<mask id="path-1-inside-1_449_17" fill="white">
<path d="M21 0C9.39 0 0 9.39 0 21C0 36.75 21 60 21 60C21 60 42 36.75 42 21C42 9.39 32.61 0 21 0ZM21 28.5C16.86 28.5 13.5 25.14 13.5 21C13.5 16.86 16.86 13.5 21 13.5C25.14 13.5 28.5 16.86 28.5 21C28.5 25.14 25.14 28.5 21 28.5Z"/>
</mask>
<path d="M21 0C9.39 0 0 9.39 0 21C0 36.75 21 60 21 60C21 60 42 36.75 42 21C42 9.39 32.61 0 21 0ZM21 28.5C16.86 28.5 13.5 25.14 13.5 21C13.5 16.86 16.86 13.5 21 13.5C25.14 13.5 28.5 16.86 28.5 21C28.5 25.14 25.14 28.5 21 28.5Z" fill="#DFFFE2" stroke="black" stroke-width="6" mask="url(#path-1-inside-1_449_17)"/>
</g>
<g id="Ellipse 7" filter="url(#filter0_d_449_17)">
<circle cx="20.9375" cy="20.9375" r="15.9375" fill="#22CC3D"/>
<circle cx="20.9375" cy="20.9375" r="15.1875" stroke="#DFFFE2" stroke-width="1.5"/>
</g>
<path id="hotel_icon" d="M16.7277 21.2968C17.9838 21.2968 19.0058 20.2748 19.0058 19.0187C19.0058 17.7626 17.9838 16.7406 16.7277 16.7406C15.4716 16.7406 14.4496 17.7626 14.4496 19.0187C14.4496 20.2748 15.4716 21.2968 16.7277 21.2968ZM26.7514 17.6518H20.3727C20.121 17.6518 19.9171 17.8557 19.9171 18.1075V22.2081H13.5383V16.285C13.5383 16.0332 13.3344 15.8293 13.0827 15.8293H12.1714C11.9197 15.8293 11.7158 16.0332 11.7158 16.285V26.3087C11.7158 26.5605 11.9197 26.7643 12.1714 26.7643H13.0827C13.3344 26.7643 13.5383 26.5605 13.5383 26.3087V24.9418H28.1183V26.3087C28.1183 26.5605 28.3222 26.7643 28.5739 26.7643H29.4852C29.7369 26.7643 29.9408 26.5605 29.9408 26.3087V20.8412C29.9408 19.0797 28.513 17.6518 26.7514 17.6518Z" fill="white"/>
</g>
<defs>
<filter id="filter0_d_449_17" x="1" y="5" width="39.875" height="39.875" filterUnits="userSpaceOnUse" color-interpolation-filters="sRGB">
<feFlood flood-opacity="0" result="BackgroundImageFix"/>
<feColorMatrix in="SourceAlpha" type="matrix" values="0 0 0 0 0 0 0 0 0 0 0 0 0 0 0 0 0 0 127 0" result="hardAlpha"/>
<feOffset dy="4"/>
<feGaussianBlur stdDeviation="2"/>
<feComposite in2="hardAlpha" operator="out"/>
<feColorMatrix type="matrix" values="0 0 0 0 0 0 0 0 0 0 0 0 0 0 0 0 0 0 0.25 0"/>
<feBlend mode="normal" in2="BackgroundImageFix" result="effect1_dropShadow_449_17"/>
<feBlend mode="normal" in="SourceGraphic" in2="effect1_dropShadow_449_17" result="shape"/>
</filter>
</defs>
</svg>
