<svg width="23" height="36" viewBox="0 0 23 36" fill="none" xmlns="http://www.w3.org/2000/svg">
<path id="pedestrian_icon" d="M9.00211 14.0429L9.37639 14.1426L8.18814 18.6073L9.00211 14.0429ZM9.00211 14.0429L8.90024 13.514H8.89321H8.50887L8.47254 13.6505L7.93339 13.8864L7.93338 13.8864L7.93047 13.8877C6.64889 14.4581 5.66496 15.5438 5.21977 16.8716L5.21949 16.8724L5.03667 17.4209C4.73063 18.339 3.74189 18.8319 2.82133 18.525C1.90321 18.219 1.41032 17.2302 1.71718 16.3097L1.89986 15.7616C1.89988 15.7616 1.8999 15.7615 1.89992 15.7614C2.65707 13.4968 4.33041 11.6509 6.50743 10.6814C6.50792 10.6812 6.50841 10.6809 6.50891 10.6807L7.06852 10.4359L7.07036 10.4351C8.46977 9.81613 9.98304 9.49341 11.516 9.49341C14.4505 9.49341 17.0949 11.2567 18.2195 13.9599L18.2198 13.9604L19.3026 16.5551L19.3742 16.7266L19.5404 16.8097L21.0452 17.5621C21.9092 17.9941 22.2591 19.0438 21.8271 19.9078C21.3951 20.7718 20.3454 21.1218 19.4814 20.6898L19.48 20.6891L17.5986 19.7554C17.5982 19.7552 17.5977 19.755 17.5973 19.7547C16.9781 19.4418 16.4949 18.9268 16.2325 18.2889L16.2315 18.2864L15.5565 16.6692L15.0137 15.3688L14.6155 16.7204L13.2584 21.3261L13.1785 21.5971L13.3694 21.8053L16.8498 25.6021C17.1725 25.9547 17.4007 26.3797 17.5215 26.85C17.5216 26.8505 17.5217 26.8509 17.5218 26.8513L19.1383 33.3243L19.1385 33.3251C19.3734 34.2591 18.8055 35.211 17.8638 35.4464C16.9228 35.6816 15.9775 35.1139 15.7419 34.1719C15.7419 34.1719 15.7419 34.1719 15.7419 34.1718L14.195 27.9771L14.1642 27.8539L14.0784 27.7603L9.10703 22.339L9.10661 22.3385C8.18207 21.3327 7.83803 19.9269 8.18805 18.6076L9.00211 14.0429ZM5.18923 28.3396L5.26192 28.267L5.30011 28.1717L6.74351 24.569L9.36686 27.4308L8.46422 29.6843L8.46413 29.6845C8.32017 30.0444 8.10437 30.3738 7.82946 30.6487L3.49097 34.9872C2.80728 35.6709 1.69645 35.6709 1.01277 34.9872C0.329127 34.3036 0.329078 33.1929 1.01262 32.5092C1.01267 32.5091 1.01272 32.5091 1.01277 32.509L5.18923 28.3396ZM11.7558 3.37516C11.7558 2.61262 12.0587 1.88131 12.5979 1.34212C13.1371 0.802918 13.8684 0.5 14.631 0.5C15.3935 0.5 16.1248 0.802918 16.664 1.34212C17.2032 1.88131 17.5062 2.61262 17.5062 3.37516C17.5062 4.13771 17.2032 4.86902 16.664 5.40821C16.1248 5.94741 15.3935 6.25033 14.631 6.25033C13.8684 6.25033 13.1371 5.94741 12.5979 5.40821C12.0587 4.86902 11.7558 4.13771 11.7558 3.37516Z" fill="#44CC2E" stroke="black"/>
</svg>
