<svg width="25" height="25" viewBox="0 0 25 25" fill="none" xmlns="http://www.w3.org/2000/svg">
<path d="M23.5417 25C20.6481 25 17.7894 24.3692 14.9653 23.1076C12.1412 21.8461 9.57176 20.0579 7.25694 17.7431C4.94213 15.4282 3.15394 12.8588 1.89236 10.0347C0.630787 7.21065 0 4.35185 0 1.45833C0 1.04167 0.138889 0.694444 0.416667 0.416667C0.694444 0.138889 1.04167 0 1.45833 0H7.08333C7.40741 0 7.69676 0.109954 7.95139 0.329861C8.20602 0.549768 8.35648 0.810185 8.40278 1.11111L9.30556 5.97222C9.35185 6.34259 9.34028 6.65509 9.27083 6.90972C9.20139 7.16435 9.07407 7.38426 8.88889 7.56944L5.52083 10.9722C5.9838 11.8287 6.53356 12.6562 7.17014 13.4549C7.80671 14.2535 8.50694 15.0231 9.27083 15.7639C9.98843 16.4815 10.7407 17.147 11.5278 17.7604C12.3148 18.3738 13.1481 18.9352 14.0278 19.4444L17.2917 16.1806C17.5 15.9722 17.772 15.816 18.1076 15.7118C18.4433 15.6076 18.7731 15.5787 19.0972 15.625L23.8889 16.5972C24.213 16.6898 24.4792 16.8576 24.6875 17.1007C24.8958 17.3437 25 17.6157 25 17.9167V23.5417C25 23.9583 24.8611 24.3056 24.5833 24.5833C24.3056 24.8611 23.9583 25 23.5417 25ZM4.20139 8.33333L6.49306 6.04167L5.90278 2.77778H2.8125C2.92824 3.72685 3.09028 4.66435 3.29861 5.59028C3.50694 6.5162 3.80787 7.43056 4.20139 8.33333ZM16.6319 20.7639C17.5347 21.1574 18.4549 21.4699 19.3924 21.7014C20.3299 21.9329 21.2731 22.0833 22.2222 22.1528V19.0972L18.9583 18.4375L16.6319 20.7639Z" fill="#22CC3D"/>
</svg>
