<svg width="41" height="36" viewBox="0 0 41 36" fill="none" xmlns="http://www.w3.org/2000/svg">
<path id="plane_icon" d="M25.7133 22H25.4231L25.2791 22.252L18.2127 34.6199L18.2125 34.6204C17.9015 35.166 17.3228 35.5 16.6922 35.5H12.7406C12.3276 35.5 12.0257 35.1008 12.1387 34.7027C12.1387 34.7026 12.1387 34.7025 12.1388 34.7024L15.5839 22.6373L15.7659 22H15.1031H7.875H7.625L7.475 22.2L4.4375 26.25C4.32099 26.4053 4.13168 26.5 3.9375 26.5H0.984375C0.714405 26.5 0.5 26.2832 0.5 26.0156C0.5 25.9769 0.5057 25.9288 0.519714 25.8655L2.73071 18.1375L2.77006 18L2.73071 17.8625L0.515869 10.1211L0.515963 10.121L0.513046 10.1116C0.505613 10.0874 0.5 10.0518 0.5 9.98438C0.5 9.71441 0.71678 9.5 0.984375 9.5H3.9375C4.13168 9.5 4.32099 9.59465 4.4375 9.75L7.475 13.8L7.625 14H7.875H15.1102H15.7729L15.5909 13.3627L12.1456 1.29709L12.1456 1.29708L12.1445 1.29329C12.0285 0.898662 12.3267 0.5 12.7406 0.5H16.6922C17.3202 0.5 17.9007 0.83881 18.2131 1.38077C18.2133 1.38102 18.2134 1.38127 18.2136 1.38151L25.2791 13.748L25.4231 14H25.7133H33.9117C35.0018 14 36.56 14.4726 37.8482 15.2546C38.4874 15.6426 39.0352 16.0922 39.4183 16.571C39.8012 17.0496 40 17.5315 40 18C40 18.9871 39.1629 19.9822 37.8502 20.7706C36.5645 21.5427 35.0054 22 33.9117 22H25.7133Z" fill="#44CC2E" stroke="black"/>
</svg>
