<svg width="84" height="120" viewBox="0 0 84 120" fill="none" xmlns="http://www.w3.org/2000/svg">
<path d="M42 116.588C41.9671 116.55 41.9337 116.511 41.8999 116.472C40.7641 115.153 39.1378 113.231 37.1845 110.824C33.276 106.008 28.0684 99.266 22.8652 91.5541C17.6577 83.8358 12.4824 75.1873 8.61586 66.5567C4.73611 57.8965 2.25 49.4197 2.25 42C2.25 20.0226 20.0226 2.25 42 2.25C63.9774 2.25 81.75 20.0226 81.75 42C81.75 49.4197 79.2639 57.8965 75.3841 66.5567C71.5176 75.1873 66.3423 83.8358 61.1348 91.5541C55.9316 99.266 50.724 106.008 46.8155 110.824C44.8622 113.231 43.2359 115.153 42.1001 116.472C42.0663 116.511 42.0329 116.55 42 116.588ZM24.75 42C24.75 51.5226 32.4774 59.25 42 59.25C51.5226 59.25 59.25 51.5226 59.25 42C59.25 32.4774 51.5226 24.75 42 24.75C32.4774 24.75 24.75 32.4774 24.75 42Z" fill="#DFFFE2" stroke="black" stroke-width="4.5"/>
</svg>
