<svg width="30" height="29" viewBox="0 0 30 29" fill="none" xmlns="http://www.w3.org/2000/svg">
<path id="rateStarIcon" d="M15.5536 1.54162L15.5536 1.54162L15.5554 1.5453L19.2085 9.03801L19.486 9.60722L20.1125 9.69936L28.2735 10.8996C28.2739 10.8996 28.2742 10.8997 28.2746 10.8997C28.507 10.9349 28.6981 11.0965 28.772 11.3193C28.8429 11.5331 28.7858 11.7755 28.62 11.9389L28.6196 11.9393L22.6997 17.7783L22.2546 18.2174L22.3594 18.8339L23.7621 27.0822C23.7622 27.0825 23.7622 27.0828 23.7623 27.0831C23.7993 27.307 23.7071 27.5414 23.5084 27.6854C23.3247 27.8186 23.0718 27.8404 22.8531 27.7262C22.8525 27.7258 22.8519 27.7255 22.8513 27.7252L15.5674 23.8485L15.0036 23.5484L14.4398 23.8485L7.15583 27.7252C7.15524 27.7255 7.15466 27.7258 7.15408 27.7261C6.94184 27.837 6.68473 27.8184 6.49221 27.6808C6.30397 27.5462 6.20698 27.3118 6.24485 27.0831C6.2449 27.0828 6.24496 27.0825 6.24501 27.0822L7.64216 18.8331L7.7465 18.2171L7.30169 17.7783L1.38187 11.9393L1.38141 11.9389C1.22123 11.7811 1.15919 11.5371 1.23237 11.3103C1.29985 11.1012 1.48799 10.9358 1.72703 10.8997C1.72732 10.8997 1.72762 10.8996 1.72791 10.8996L9.88339 9.69934L10.5098 9.60715L10.7873 9.03801L14.4382 1.54956C14.4385 1.54902 14.4388 1.54848 14.439 1.54794C14.5456 1.33313 14.76 1.2 14.9979 1.2C15.2422 1.2 15.4554 1.33835 15.5536 1.54162Z" fill="#22CC3D" stroke="black" stroke-width="2.4"/>
</svg>
