<svg width="11" height="13" viewBox="0 0 11 13" fill="none" xmlns="http://www.w3.org/2000/svg">
<path d="M10.5469 0.781254H7.61719L7.3877 0.324711C7.33908 0.227107 7.2642 0.145005 7.17146 0.0876407C7.07873 0.0302763 6.97183 -7.39249e-05 6.86279 4.28045e-06H4.07227C3.96347 -0.000413946 3.85676 0.0298231 3.76436 0.0872513C3.67195 0.144679 3.5976 0.226976 3.5498 0.324711L3.32031 0.781254H0.390625C0.287025 0.781254 0.187668 0.822409 0.114411 0.895666C0.041155 0.968922 0 1.06828 0 1.17188L0 1.95313C0 2.05673 0.041155 2.15609 0.114411 2.22934C0.187668 2.3026 0.287025 2.34375 0.390625 2.34375H10.5469C10.6505 2.34375 10.7498 2.3026 10.8231 2.22934C10.8963 2.15609 10.9375 2.05673 10.9375 1.95313V1.17188C10.9375 1.06828 10.8963 0.968922 10.8231 0.895666C10.7498 0.822409 10.6505 0.781254 10.5469 0.781254ZM1.29883 11.4014C1.31746 11.6989 1.44877 11.9781 1.66603 12.1822C1.88329 12.3863 2.17017 12.5 2.46826 12.5H8.46924C8.76733 12.5 9.05421 12.3863 9.27147 12.1822C9.48873 11.9781 9.62004 11.6989 9.63867 11.4014L10.1562 3.125H0.78125L1.29883 11.4014Z" fill="#FF4040"/>
</svg>
