<svg width="42" height="60" viewBox="0 0 42 60" fill="none" xmlns="http://www.w3.org/2000/svg">
<g id="restaurant_marker">
<g id="Vector">
<mask id="path-1-inside-1_449_18" fill="white">
<path d="M21 0C9.39 0 0 9.39 0 21C0 36.75 21 60 21 60C21 60 42 36.75 42 21C42 9.39 32.61 0 21 0ZM21 28.5C16.86 28.5 13.5 25.14 13.5 21C13.5 16.86 16.86 13.5 21 13.5C25.14 13.5 28.5 16.86 28.5 21C28.5 25.14 25.14 28.5 21 28.5Z"/>
</mask>
<path d="M21 0C9.39 0 0 9.39 0 21C0 36.75 21 60 21 60C21 60 42 36.75 42 21C42 9.39 32.61 0 21 0ZM21 28.5C16.86 28.5 13.5 25.14 13.5 21C13.5 16.86 16.86 13.5 21 13.5C25.14 13.5 28.5 16.86 28.5 21C28.5 25.14 25.14 28.5 21 28.5Z" fill="#DFFFE2" stroke="black" stroke-width="6" mask="url(#path-1-inside-1_449_18)"/>
</g>
<g id="Ellipse 8" filter="url(#filter0_d_449_18)">
<circle cx="20.9375" cy="20.9375" r="15.9375" fill="#22CC3D"/>
<circle cx="20.9375" cy="20.9375" r="15.1875" stroke="#DFFFE2" stroke-width="1.5"/>
</g>
<path id="restaurant_icon" d="M26.1365 30.2217H27.5121C28.2081 30.2217 28.7799 29.6914 28.8628 29.0119L30.23 15.356H26.0868V12H24.4544V15.356H20.3361L20.5847 17.295C22.0016 17.6844 23.3275 18.3888 24.1229 19.1677C25.3162 20.3444 26.1365 21.5625 26.1365 23.5512V30.2217ZM12 29.3931V28.5727H24.4544V29.3931C24.4544 29.8488 24.0815 30.2217 23.6175 30.2217H12.8369C12.3729 30.2217 12 29.8488 12 29.3931ZM24.4544 23.5926C24.4544 16.9635 12 16.9635 12 23.5926H24.4544ZM12.0166 25.2582H24.4461V26.9154H12.0166V25.2582Z" fill="white"/>
</g>
<defs>
<filter id="filter0_d_449_18" x="1" y="5" width="39.875" height="39.875" filterUnits="userSpaceOnUse" color-interpolation-filters="sRGB">
<feFlood flood-opacity="0" result="BackgroundImageFix"/>
<feColorMatrix in="SourceAlpha" type="matrix" values="0 0 0 0 0 0 0 0 0 0 0 0 0 0 0 0 0 0 127 0" result="hardAlpha"/>
<feOffset dy="4"/>
<feGaussianBlur stdDeviation="2"/>
<feComposite in2="hardAlpha" operator="out"/>
<feColorMatrix type="matrix" values="0 0 0 0 0 0 0 0 0 0 0 0 0 0 0 0 0 0 0.25 0"/>
<feBlend mode="normal" in2="BackgroundImageFix" result="effect1_dropShadow_449_18"/>
<feBlend mode="normal" in="SourceGraphic" in2="effect1_dropShadow_449_18" result="shape"/>
</filter>
</defs>
</svg>
