<svg width="22" height="22" viewBox="0 0 22 22" fill="none" xmlns="http://www.w3.org/2000/svg">
<path id="restaurant_icon" d="M17.062 21.99H18.722C19.562 21.99 20.252 21.35 20.352 20.53L22.002 4.05H17.002V0H15.032V4.05H10.062L10.362 6.39C12.072 6.86 13.672 7.71 14.632 8.65C16.072 10.07 17.062 11.54 17.062 13.94V21.99ZM0.00195312 20.99V20H15.032V20.99C15.032 21.54 14.582 21.99 14.022 21.99H1.01195C0.451953 21.99 0.00195312 21.54 0.00195312 20.99ZM15.032 13.99C15.032 5.99 0.00195312 5.99 0.00195312 13.99H15.032ZM0.0219531 16H15.022V18H0.0219531V16Z" fill="white"/>
</svg>
