<svg width="39" height="39" viewBox="0 0 39 39" fill="none" xmlns="http://www.w3.org/2000/svg">
<path id="star_icon" d="M26.3081 14.4C25.3922 14.4 24.5841 13.8009 24.3179 12.9245L21.0701 2.23216C20.4726 0.264865 17.6873 0.264861 17.0897 2.23216L13.8419 12.9245C13.5757 13.8009 12.7676 14.4 11.8517 14.4H2.17563C0.151636 14.4 -0.6801 16.9975 0.96743 18.1731L8.91794 23.8466C9.64809 24.3676 9.96198 25.298 9.69668 26.1549L6.5607 36.2834C5.96232 38.2161 8.1957 39.7788 9.80635 38.5545L17.8222 32.4614C18.5656 31.8963 19.5945 31.8959 20.3384 32.4604L28.3807 38.5638C29.9917 39.7864 32.2232 38.2236 31.6251 36.2917L28.4862 26.1537C28.2211 25.2974 28.5344 24.3676 29.2636 23.8463L37.2023 18.1722C38.8482 16.9958 38.0159 14.4 35.9928 14.4H26.3081Z" fill="white"/>
</svg>
