<svg width="25" height="25" viewBox="0 0 25 25" fill="none" xmlns="http://www.w3.org/2000/svg">
<path d="M12.5 25C10.7917 25 9.17708 24.6717 7.65625 24.0154C6.13542 23.3592 4.80729 22.4638 3.67187 21.3283C2.53646 20.1929 1.64062 18.8646 0.984375 17.3437C0.328125 15.8229 0 14.2083 0 12.5C0 10.7708 0.328125 9.15083 0.984375 7.64042C1.64062 6.13021 2.53646 4.80729 3.67187 3.67187C4.80729 2.53646 6.13542 1.64063 7.65625 0.984376C9.17708 0.328126 10.7917 0 12.5 0C14.2292 0 15.849 0.328126 17.3594 0.984376C18.8698 1.64063 20.1927 2.53646 21.3281 3.67187C22.4635 4.80729 23.3594 6.13021 24.0156 7.64042C24.6719 9.15083 25 10.7708 25 12.5C25 14.2083 24.6719 15.8229 24.0156 17.3437C23.3594 18.8646 22.4635 20.1929 21.3281 21.3283C20.1927 22.4638 18.8698 23.3592 17.3594 24.0154C15.849 24.6717 14.2292 25 12.5 25ZM12.5 22.4375C13.0417 21.6875 13.5104 20.9063 13.9062 20.0938C14.3021 19.2813 14.625 18.4167 14.875 17.5H10.125C10.375 18.4167 10.6979 19.2813 11.0937 20.0938C11.4896 20.9063 11.9583 21.6875 12.5 22.4375ZM9.25 21.9375C8.875 21.25 8.54687 20.5362 8.26562 19.7967C7.98437 19.0571 7.75 18.2917 7.5625 17.5H3.875C4.47917 18.5417 5.23437 19.4479 6.14062 20.2187C7.04687 20.9896 8.08333 21.5625 9.25 21.9375ZM15.75 21.9375C16.9167 21.5625 17.9531 20.9896 18.8594 20.2187C19.7656 19.4479 20.5208 18.5417 21.125 17.5H17.4375C17.25 18.2917 17.0156 19.0571 16.7344 19.7967C16.4531 20.5362 16.125 21.25 15.75 21.9375ZM2.8125 15H7.0625C7 14.5833 6.95312 14.1721 6.92187 13.7654C6.89062 13.3592 6.875 12.9375 6.875 12.5C6.875 12.0625 6.89062 11.6408 6.92187 11.2342C6.95312 10.8279 7 10.4167 7.0625 10H2.8125C2.70833 10.4167 2.63021 10.8279 2.57812 11.2342C2.52604 11.6408 2.5 12.0625 2.5 12.5C2.5 12.9375 2.52604 13.3592 2.57812 13.7654C2.63021 14.1721 2.70833 14.5833 2.8125 15ZM9.5625 15H15.4375C15.5 14.5833 15.5469 14.1721 15.5781 13.7654C15.6094 13.3592 15.625 12.9375 15.625 12.5C15.625 12.0625 15.6094 11.6408 15.5781 11.2342C15.5469 10.8279 15.5 10.4167 15.4375 10H9.5625C9.5 10.4167 9.45312 10.8279 9.42187 11.2342C9.39062 11.6408 9.375 12.0625 9.375 12.5C9.375 12.9375 9.39062 13.3592 9.42187 13.7654C9.45312 14.1721 9.5 14.5833 9.5625 15ZM17.9375 15H22.1875C22.2917 14.5833 22.3698 14.1721 22.4219 13.7654C22.474 13.3592 22.5 12.9375 22.5 12.5C22.5 12.0625 22.474 11.6408 22.4219 11.2342C22.3698 10.8279 22.2917 10.4167 22.1875 10H17.9375C18 10.4167 18.0469 10.8279 18.0781 11.2342C18.1094 11.6408 18.125 12.0625 18.125 12.5C18.125 12.9375 18.1094 13.3592 18.0781 13.7654C18.0469 14.1721 18 14.5833 17.9375 15ZM17.4375 7.5H21.125C20.5208 6.45833 19.7656 5.55208 18.8594 4.78125C17.9531 4.01042 16.9167 3.4375 15.75 3.0625C16.125 3.75 16.4531 4.46354 16.7344 5.20313C17.0156 5.94271 17.25 6.70833 17.4375 7.5ZM10.125 7.5H14.875C14.625 6.58333 14.3021 5.71875 13.9062 4.90625C13.5104 4.09375 13.0417 3.3125 12.5 2.5625C11.9583 3.3125 11.4896 4.09375 11.0937 4.90625C10.6979 5.71875 10.375 6.58333 10.125 7.5ZM3.875 7.5H7.5625C7.75 6.70833 7.98437 5.94271 8.26562 5.20313C8.54687 4.46354 8.875 3.75 9.25 3.0625C8.08333 3.4375 7.04687 4.01042 6.14062 4.78125C5.23437 5.55208 4.47917 6.45833 3.875 7.5Z" fill="#22CC3D"/>
</svg>
